<svg xmlns="http://www.w3.org/2000/svg" viewBox="0 0 2048 2048">
  <path d="M827 1408q-43 0-82-13t-72-38-56-58-36-76L324 326q-7-25-20-39t-31-21-38-8-43-2q-26 0-45-19t-19-45q0-24 9-37t25-19 33-7 36-1q37 0 71 12t63 33 50 51 32 66l27 94h1318q26 0 49 10t41 27 28 41 10 50q0 17-5 35l-193 675q-12 41-36 75t-56 59-72 38-82 14H827zm649-128q43 0 77-25t46-68l193-675H510l194 675q12 42 46 67t77 26h649zm-836 448q0-39 15-74t41-61 62-42 74-15q39 0 74 15t61 41 42 62 15 74q0 39-15 74t-41 61-62 42-74 15q-39 0-74-15t-61-41-42-62-15-74zm640 0q0-39 15-74t41-61 62-42 74-15q39 0 74 15t61 41 42 62 15 74q0 39-15 74t-41 61-62 42-74 15q-39 0-74-15t-61-41-42-62-15-74zm-384 0q0-26-19-45t-45-19q-26 0-45 19t-19 45q0 26 19 45t45 19q26 0 45-19t19-45zm640 0q0-26-19-45t-45-19q-26 0-45 19t-19 45q0 26 19 45t45 19q26 0 45-19t19-45z" />
</svg>